<svg viewBox="0 0 820 240" xmlns="http://www.w3.org/2000/svg">
  <defs>
    <linearGradient id="g1" x1="0%" y1="0%" x2="100%" y2="100%">
      <stop offset="0%" stop-color="#5838a8" />
      <stop offset="100%" stop-color="#c04880" />
    </linearGradient>
    <linearGradient id="g2" x1="100%" y1="0%" x2="0%" y2="100%">
      <stop offset="0%" stop-color="#4060c0" />
      <stop offset="100%" stop-color="#7a48b0" />
    </linearGradient>
    <linearGradient id="g3" x1="0%" y1="100%" x2="100%" y2="0%">
      <stop offset="0%" stop-color="#3070d0" />
      <stop offset="100%" stop-color="#5040a0" />
    </linearGradient>
  </defs>
  <rect x="0" y="0" width="820" height="240" fill="#ffffff" />
  <!-- Icon mark -->
  <rect x="10" y="10" width="220" height="220" rx="24" fill="#ffffff" stroke="#e2dff0" stroke-width="0.8" />
  <rect x="20" y="20" width="200" height="200" rx="18" fill="none" stroke="url(#g3)" stroke-width="0.6" opacity="0.35" />
  <rect x="29" y="29" width="182" height="182" rx="14" fill="none" stroke="url(#g2)" stroke-width="0.8" opacity="0.5" />
  <rect x="38" y="38" width="164" height="164" rx="10" fill="none" stroke="url(#g1)" stroke-width="1.4" />
  <g stroke="#1a1a3e" stroke-width="2.5" stroke-linecap="round" fill="none">
    <line x1="68" y1="72" x2="68" y2="168" />
    <line x1="68" y1="72" x2="115" y2="72" />
    <line x1="68" y1="117" x2="103" y2="117" />
  </g>
  <path d="M 177 88 A 38 38 0 1 0 177 152" stroke="url(#g1)" stroke-width="2.5" stroke-linecap="round" fill="none" />
  <!-- Dots inside icon -->
  <circle cx="103" cy="179" r="1.5" fill="url(#g3)" opacity="0.45" />
  <circle cx="116" cy="179" r="2" fill="url(#g2)" opacity="0.65" />
  <circle cx="129" cy="179" r="2.5" fill="url(#g1)" />
  <!-- Small text in icon -->
  <text x="116" y="196" text-anchor="middle" font-family="'Helvetica Neue','Arial',sans-serif" font-size="8" font-weight="400" fill="#2a2450" letter-spacing="6">FOOD COST</text>
  <line x1="70" y1="204" x2="162" y2="204" stroke="url(#g1)" stroke-width="0.4" opacity="0.3" />
  <!-- Large text -->
  <text x="290" y="108" font-family="'Helvetica Neue','Arial',sans-serif" font-size="52" font-weight="200" fill="#1a1a3e" letter-spacing="16">FOOD COST</text>
  <line x1="290" y1="128" x2="770" y2="128" stroke="url(#g1)" stroke-width="0.6" opacity="0.3" />
  <text x="290" y="158" font-family="'Helvetica Neue','Arial',sans-serif" font-size="14" font-weight="300" fill="#5868a8" letter-spacing="6">УПРАВЛЕНЧЕСКИЙ УЧЁТ ДЛЯ РЕСТОРАНОВ</text>
</svg>